<svg xmlns="http://www.w3.org/2000/svg" width="19.969" height="19.636" viewBox="0 0 19.969 19.636">
  <g id="direction" transform="translate(0 0)">
    <path id="Path_1293" data-name="Path 1293" d="M8.487,0H7.321a2,2,0,0,0-2,2v9.133a.166.166,0,0,1-.166.166H1.335a1.329,1.329,0,0,0-.772,2.413l7.152,6.012a1.333,1.333,0,0,0,.772.246.665.665,0,0,0,.666-.666V.666A.665.665,0,0,0,8.487,0Zm0,19.3c-.007,0-.013,0-.02,0h.02Zm0-.155a.165.165,0,0,1-.1.14.659.659,0,0,1-.285-.107L.949,13.169a.664.664,0,0,1,.386-1.206H5.323a.665.665,0,0,0,.666-.666v-9.3A1.329,1.329,0,0,1,7.317.665h1a.166.166,0,0,1,.166.166Z" transform="translate(19.969) rotate(90)" fill="#51d6fe"/>
    <path id="Path_1294" data-name="Path 1294" d="M8.589,6.258,1.437.246A1.333,1.333,0,0,0,.666,0,.665.665,0,0,0,0,.666V19.3a.665.665,0,0,0,.666.666H1.832a2,2,0,0,0,2-2V8.837A.166.166,0,0,1,4,8.671h3.82A1.329,1.329,0,0,0,8.589,6.258ZM.666.665c.007,0,.013,0,.02,0H.666ZM8.452,7.544a.646.646,0,0,1-.635.463H3.83a.665.665,0,0,0-.666.666v9.3A1.329,1.329,0,0,1,1.835,19.3h-1a.166.166,0,0,1-.166-.166V.82a.165.165,0,0,1,.1-.14.659.659,0,0,1,.285.107L8.2,6.8A.644.644,0,0,1,8.452,7.544Z" transform="translate(19.969 10.484) rotate(90)" fill="#51d6fe"/>
  </g>
</svg>
