<svg id="iconfinder_15_1757454" xmlns="http://www.w3.org/2000/svg" width="63.094" height="44.884" viewBox="0 0 63.094 44.884">
  <circle id="XMLID_368_" cx="3.155" cy="3.155" r="3.155" transform="translate(4.644 38.574)" fill="#414141"/>
  <path id="XMLID_367_" d="M69.023,80.091a2.534,2.534,0,0,0-3.054-1.88L55.306,80.747A2.58,2.58,0,0,0,53.564,82.2l-7.357,31.89H8.537a2.537,2.537,0,1,0,0,5.073h.972a4.348,4.348,0,0,1,8.581,0H34.559a4.348,4.348,0,0,1,8.581,0H47.9a2.522,2.522,0,0,0,2.322-1.527l7.534-32.244,9.427-2.246A2.534,2.534,0,0,0,69.023,80.091Z" transform="translate(-6 -78.14)" fill="#414141"/>
  <circle id="XMLID_366_" cx="3.155" cy="3.155" r="3.155" transform="translate(29.682 38.574)" fill="#414141"/>
  <rect id="XMLID_365_" width="8.417" height="7.673" transform="translate(12.33 18.205)" fill="#15d8e5"/>
  <rect id="XMLID_364_" width="8.417" height="7.673" transform="translate(22.388 18.205)" fill="#ffa851"/>
  <rect id="XMLID_363_" width="8.417" height="7.673" transform="translate(17.365 9.447)" fill="#13ce90"/>
  <rect id="XMLID_362_" width="8.417" height="7.673" transform="translate(27.587 26.951)" fill="#007db5"/>
  <rect id="XMLID_361_" width="8.417" height="7.673" transform="translate(17.365 26.951)" fill="#f93946"/>
  <rect id="XMLID_360_" width="8.417" height="7.673" transform="translate(7.13 26.951)" fill="#007db5"/>
</svg>
