<svg xmlns="http://www.w3.org/2000/svg" width="35.622" height="25.34" viewBox="0 0 35.622 25.34">
  <g id="lory_black" transform="translate(0 0)">
    <circle id="XMLID_368_" cx="1.781" cy="1.781" r="1.781" transform="translate(2.622 21.778)" fill="#414141"/>
    <path id="XMLID_367_" d="M41.581,79.241a1.431,1.431,0,0,0-1.724-1.062l-6.02,1.432a1.456,1.456,0,0,0-.983.819l-4.154,18H7.432a1.432,1.432,0,1,0,0,2.864h.549a2.455,2.455,0,0,1,4.845,0h9.3a2.455,2.455,0,0,1,4.845,0h2.686a1.424,1.424,0,0,0,1.311-.862l4.254-18.2,5.322-1.268A1.431,1.431,0,0,0,41.581,79.241Z" transform="translate(-6 -78.14)" fill="#414141"/>
    <circle id="XMLID_366_" cx="1.781" cy="1.781" r="1.781" transform="translate(16.758 21.778)" fill="#414141"/>
    <rect id="XMLID_365_" width="4.752" height="4.332" transform="translate(6.961 10.278)" fill="#414141"/>
    <rect id="XMLID_364_" width="4.752" height="4.332" transform="translate(12.639 10.278)" fill="#414141"/>
    <rect id="XMLID_363_" width="4.752" height="4.332" transform="translate(9.804 5.334)" fill="#414141"/>
    <rect id="XMLID_362_" width="4.752" height="4.332" transform="translate(15.575 15.216)" fill="#414141"/>
    <rect id="XMLID_361_" width="4.752" height="4.332" transform="translate(9.804 15.216)" fill="#414141"/>
    <rect id="XMLID_360_" width="4.752" height="4.332" transform="translate(4.026 15.216)" fill="#414141"/>
  </g>
</svg>
