<svg xmlns="http://www.w3.org/2000/svg" width="43.63" height="31.037" viewBox="0 0 43.63 31.037">
  <g id="lory" transform="translate(0 0)">
    <circle id="XMLID_368_" cx="2.182" cy="2.182" r="2.182" transform="translate(3.211 26.674)" fill="#fff"/>
    <path id="XMLID_367_" d="M49.581,79.489a1.753,1.753,0,0,0-2.112-1.3l-7.374,1.754a1.784,1.784,0,0,0-1.2,1L33.8,103H7.754a1.754,1.754,0,1,0,0,3.508h.672a3.006,3.006,0,0,1,5.934,0H25.748a3.006,3.006,0,0,1,5.934,0h3.29a1.744,1.744,0,0,0,1.606-1.056l5.21-22.3L48.307,81.6A1.752,1.752,0,0,0,49.581,79.489Z" transform="translate(-6 -78.14)" fill="#fff"/>
    <circle id="XMLID_366_" cx="2.182" cy="2.182" r="2.182" transform="translate(20.525 26.674)" fill="#fff"/>
    <rect id="XMLID_365_" width="5.821" height="5.306" transform="translate(8.526 12.589)" fill="#fff"/>
    <rect id="XMLID_364_" width="5.821" height="5.306" transform="translate(15.481 12.589)" fill="#fff"/>
    <rect id="XMLID_363_" width="5.821" height="5.306" transform="translate(12.008 6.533)" fill="#fff"/>
    <rect id="XMLID_362_" width="5.821" height="5.306" transform="translate(19.076 18.637)" fill="#fff"/>
    <rect id="XMLID_361_" width="5.821" height="5.306" transform="translate(12.008 18.637)" fill="#fff"/>
    <rect id="XMLID_360_" width="5.821" height="5.306" transform="translate(4.931 18.637)" fill="#fff"/>
  </g>
</svg>
