<svg xmlns="http://www.w3.org/2000/svg" width="33.937" height="22.316" viewBox="0 0 33.937 22.316">
  <g id="speedometer_black" transform="translate(0 0)">
    <path id="Path_1408" data-name="Path 1408" d="M755.078,585.07c0-.074-.005-.148-.008-.222s-.005-.149-.008-.224l0-.056v-.113l-.007-.093-.029-.374-.007-.095-.011-.122-.023-.244q-.012-.122-.024-.243l-.012-.121-.015-.112c-.041-.294-.077-.584-.129-.862-.024-.139-.047-.276-.073-.409l-.081-.39c-.05-.253-.113-.49-.166-.709l-.04-.16-.042-.152-.079-.281c-.026-.088-.048-.17-.071-.246l-.066-.207-.074-.231a.176.176,0,0,0-.216-.115l-5.738,1.635a.176.176,0,0,0-.125.2l.021.114.027.143c.009.052.017.109.026.169l.029.192c.005.034.011.068.016.1l.013.11c.016.149.04.31.051.482q.011.128.022.263c.006.09.008.182.013.275.012.186.01.38.014.576v.073l0,.065,0,.129q0,.064,0,.129v.064l0,.093q-.008.188-.016.375l0,.093v.014c0,.014,0-.111,0-.057v0l0,.018,0,.037-.013.146-.013.145-.017.143c-.012.095-.02.188-.035.28l-.039.269-.044.256c-.013.083-.031.163-.046.241s-.029.153-.046.224l-.047.2-.022.094-.021.076-.012.044h7.018a.176.176,0,0,0,.176-.168v0q.009-.2.018-.4t.008-.419c0-.142,0-.287,0-.433Q755.079,585.181,755.078,585.07Z" transform="translate(-721.145 -564.399)" fill="#414141"/>
    <path id="Path_1409" data-name="Path 1409" d="M659.7,338.522a.176.176,0,0,0,.094-.239l-.067-.142-.08-.168-.121-.247-.139-.28c-.025-.051-.049-.093-.075-.142l-.078-.144c-.053-.1-.108-.2-.167-.305l-.188-.322-.1-.167-.105-.169-.218-.347c-.156-.23-.312-.471-.486-.706l-.128-.178-.065-.089-.067-.088-.271-.35c-.092-.116-.187-.229-.28-.342-.047-.056-.093-.114-.141-.169l-.144-.164-.143-.163c-.047-.054-.095-.107-.144-.159l-.288-.307c-.095-.1-.193-.195-.286-.289s-.185-.186-.279-.272l-.269-.251c-.086-.081-.175-.155-.257-.229l-.238-.208-.22-.181-.193-.159c-.06-.049-.117-.091-.168-.131l-.185-.142a.176.176,0,0,0-.243.028l-3.08,3.728a.176.176,0,0,0,.012.237l.089.088c.032.032.069.066.106.106l.122.129.139.146.148.167c.051.059.107.117.16.182l.166.2c.058.067.113.14.17.214s.117.147.174.225l.173.238c.03.04.058.081.086.123l.085.125.086.126c.029.042.055.086.083.129.054.087.111.173.164.26l.156.265.039.066.036.067.073.133c.1.175.184.355.272.524l.119.255.058.123.052.123.1.234.087.221.041.1c.013.033.028.069.037.1l.056.164.05.143.056.168.05.149a.176.176,0,0,0,.233.107Z" transform="translate(-627.595 -325.216)" fill="#414141"/>
    <path id="Path_1410" data-name="Path 1410" d="M452.079,238.908l.155.021.181.032.205.035c.063.01.128.026.2.04l1.944-3.975-.285-.045c-.064-.01-.127-.021-.19-.028l-.186-.023-.357-.042-.334-.029c-.107-.008-.209-.019-.307-.024l-.277-.014-.244-.011-.207,0-.222,0a.176.176,0,0,0-.178.168l-.177,3.7a.176.176,0,0,0,.152.183Z" transform="translate(-435.653 -232.26)" fill="#414141"/>
    <path id="Path_1411" data-name="Path 1411" d="M596.28,271.084l.148.108.13.094.07.051.069.052.126.094a.176.176,0,0,0,.252-.045l2.537-3.865a.176.176,0,0,0-.059-.249l-.137-.078-.075-.043-.09-.051-.234-.129-.266-.145-.281-.141c-.1-.048-.2-.1-.306-.15l-.331-.152c-.113-.053-.232-.1-.353-.152s-.244-.1-.371-.152l-.1-.037-1.094,4.751c.06.038.117.078.174.115Z" transform="translate(-574.631 -262.399)" fill="#414141"/>
    <path id="Path_1412" data-name="Path 1412" d="M190.922,241.746c.049-.006.1-.014.145-.02l.142-.014.272-.028.255-.017.12-.008c.039,0,.078-.006.111-.006l.2-.005.171-.005h.337a.176.176,0,0,0,.175-.188l-.228-3.485a.176.176,0,0,0-.2-.163l-.156.02-.182.023-.253.038-.287.044c-.052.007-.1.017-.149.026l-.153.029-.324.063-.344.078-.179.041c-.06.014-.121.031-.183.047l-.375.1-.384.116c-.065.02-.13.039-.2.06l-.2.067-.2.067c-.066.022-.132.045-.2.07l-.392.149c-.13.051-.258.107-.386.161-.064.027-.128.054-.191.082l-.188.087-.186.086c-.062.028-.123.057-.183.088l-.354.179c-.116.058-.227.123-.337.182s-.217.118-.319.18l-.3.177c-.1.056-.186.117-.274.172l-.25.16-.221.151-.194.133c-.06.041-.113.082-.161.117l-.168.124a.176.176,0,0,0-.041.241l1.447,2.128a.176.176,0,0,0,.232.054l.13-.073c.043-.024.09-.052.143-.08l.171-.089.194-.1.218-.1c.076-.036.154-.076.237-.112l.257-.113c.087-.04.18-.075.273-.113s.188-.078.287-.113l.3-.108c.05-.019.1-.035.153-.052l.156-.05.156-.051.159-.046c.106-.029.212-.062.319-.089l.321-.079c.053-.014.107-.025.16-.036l.16-.034.158-.034c.053-.011.106-.019.158-.028l.309-.054Z" transform="translate(-177.904 -235.117)" fill="#414141"/>
    <path id="Path_1413" data-name="Path 1413" d="M25.685,360.582l-.114.162-.115.163c-.038.055-.074.111-.111.167-.073.112-.148.223-.22.337l-.21.342-.052.085-.05.087-.1.172c-.134.227-.25.459-.368.679l-.162.331-.078.16-.071.159-.136.3-.119.287c-.037.092-.075.18-.107.265l-.09.241-.079.212-.062.182-.062.185a.176.176,0,0,0,.1.221l1.347.516a.176.176,0,0,0,.222-.088l.07-.147.074-.154.093-.179.105-.2c.037-.071.08-.144.123-.221l.135-.24.152-.252.079-.131.085-.132.176-.271c.127-.179.251-.368.391-.55l.1-.139.052-.07.054-.068.217-.273c.074-.09.15-.177.224-.266.038-.044.074-.089.112-.131l.115-.127.114-.126c.038-.042.075-.083.115-.123l.229-.237c.075-.078.153-.15.227-.223s.147-.144.221-.209l.213-.194c.068-.063.138-.119.2-.175l.187-.16.166-.131.145-.116c.021-.017.048-.037.072-.055l.069-.052.126-.095a.176.176,0,0,0,.028-.255l-1.534-1.8a.176.176,0,0,0-.256-.013l-.113.109-.062.06c-.022.022-.043.041-.071.069l-.17.172-.193.2-.2.215c-.068.075-.142.152-.213.235l-.222.257c-.077.087-.151.181-.228.276s-.156.191-.233.291l-.232.307C25.761,360.475,25.722,360.528,25.685,360.582Z" transform="translate(-22.535 -351.203)" fill="#414141"/>
    <path id="Path_1414" data-name="Path 1414" d="M.363,597.769l-.031.154L.3,598.1c-.013.066-.026.144-.04.224l-.044.256c-.008.045-.016.092-.023.138l-.019.143c-.025.195-.058.4-.077.628l-.034.343c-.01.117-.016.237-.024.359-.019.243-.023.5-.031.751l0,.1v.29q0,.1,0,.194v.1l0,.1.016.387,0,.1v.031l0,.023,0,.046.014.185.014.184.018.19.018.187.009.092.011.09.045.353.052.336c.016.109.036.215.055.317l0,.024a.176.176,0,0,0,.173.144H.921a.176.176,0,0,0,.176-.187q0-.041-.005-.082c-.006-.1-.013-.2-.015-.3l-.011-.322c0-.11,0-.222,0-.336v-.086l0-.085,0-.172,0-.174.009-.184.009-.185,0-.047v-.026c0-.007,0,.007,0,0V602.2l.007-.09.029-.361.007-.09.01-.09.021-.18.021-.179.01-.089.013-.088c.036-.235.067-.466.112-.687.021-.111.04-.22.062-.326l.069-.31c.042-.2.1-.389.139-.563l.033-.127c.011-.041.024-.079.035-.118l.065-.216c.021-.069.038-.13.058-.191l.057-.172.05-.15a.176.176,0,0,0-.122-.225l-1.19-.317A.176.176,0,0,0,.363,597.769Z" transform="translate(0 -582.09)" fill="#414141"/>
    <path id="Path_1415" data-name="Path 1415" d="M345.83,184.51a2.738,2.738,0,0,0,3.665-1.258,2.875,2.875,0,0,0,.208-.588l2.771-12.029,1.055-4.581.654-2.838a.449.449,0,0,0-.45-.555.431.431,0,0,0-.4.255l-1.33,2.721-1.963,4.015-5.472,11.192A2.74,2.74,0,0,0,345.83,184.51Zm1.3-3.874a1.343,1.343,0,1,1-1.343,1.343A1.343,1.343,0,0,1,347.133,180.636Z" transform="translate(-331.994 -162.661)" fill="#414141"/>
  </g>
</svg>
