<svg xmlns="http://www.w3.org/2000/svg" width="36.112" height="23.746" viewBox="0 0 36.112 23.746">
  <g id="speedometer" transform="translate(0 0)">
    <g id="Group_697" data-name="Group 697">
      <path id="Path_1408" data-name="Path 1408" d="M755.54,585.441q0-.118-.008-.236t-.009-.238l0-.06v-.12l-.008-.1-.031-.4-.008-.1-.012-.13-.025-.26q-.013-.129-.025-.258c0-.043-.009-.086-.013-.129l-.016-.119c-.043-.313-.082-.621-.137-.917-.026-.148-.05-.294-.077-.436l-.086-.415c-.053-.27-.12-.522-.177-.755l-.042-.171-.045-.162-.084-.3c-.027-.093-.051-.181-.076-.262l-.07-.221-.079-.245a.187.187,0,0,0-.23-.123l-6.105,1.74a.187.187,0,0,0-.133.214l.023.122.029.152c.01.055.018.116.028.18l.031.2c.005.036.012.073.017.11l.013.117c.017.159.042.329.054.512l.023.28c.006.1.009.194.014.293.013.2.011.4.014.613v.077l0,.069,0,.137q0,.069,0,.138v.069l0,.1q-.008.2-.017.4l0,.1v.015c0,.015,0-.118,0-.061v0l0,.02,0,.039-.014.156-.014.155-.018.152c-.013.1-.021.2-.037.3l-.042.286-.047.272c-.014.089-.033.174-.049.256s-.031.162-.049.238l-.05.218-.023.1-.022.081-.012.046h7.467a.187.187,0,0,0,.187-.179.007.007,0,0,0,0,0q.009-.209.019-.428t.008-.446c0-.151,0-.305,0-.461Q755.541,585.559,755.54,585.441Z" transform="translate(-719.433 -563.445)" fill="#fff"/>
      <path id="Path_1409" data-name="Path 1409" d="M660.27,338.989a.187.187,0,0,0,.1-.254l-.072-.151-.085-.178-.129-.263-.148-.3c-.026-.054-.052-.1-.08-.151l-.083-.153c-.057-.1-.115-.213-.177-.325l-.2-.342-.1-.178-.112-.18-.232-.369c-.166-.245-.332-.5-.517-.751l-.137-.189-.069-.095-.072-.093-.288-.373c-.1-.123-.2-.243-.3-.364-.05-.06-.1-.121-.15-.18l-.154-.175-.152-.173c-.05-.058-.1-.114-.153-.169l-.306-.326c-.1-.107-.205-.207-.3-.308s-.2-.2-.3-.289l-.286-.268c-.092-.087-.186-.165-.273-.243l-.253-.221-.234-.193-.206-.169c-.064-.052-.125-.1-.178-.139l-.2-.151a.187.187,0,0,0-.258.03l-3.277,3.966a.187.187,0,0,0,.013.252l.095.094c.034.034.073.071.113.113l.13.137.148.155.158.178c.054.062.114.124.17.193l.176.212c.062.071.12.149.181.227s.125.157.185.24l.184.253c.032.042.062.086.091.131l.091.133.091.134c.03.045.058.092.088.137.058.093.118.184.175.277l.166.282.042.07.039.071.078.142c.106.186.2.378.29.558l.126.272.061.131.055.13.107.249.092.236.043.111c.013.035.03.073.039.1l.06.175.054.153.06.178.053.159a.187.187,0,0,0,.248.114Z" transform="translate(-626.105 -324.83)" fill="#fff"/>
      <path id="Path_1410" data-name="Path 1410" d="M452.1,239.169l.164.022.192.034.218.037c.067.011.136.027.208.042l2.068-4.23-.3-.047c-.068-.01-.136-.022-.2-.03l-.2-.024-.38-.045-.356-.03c-.114-.009-.223-.02-.327-.025l-.3-.014-.259-.012-.22,0-.237,0a.187.187,0,0,0-.189.178l-.189,3.937a.187.187,0,0,0,.162.195Z" transform="translate(-434.619 -232.095)" fill="#fff"/>
      <path id="Path_1411" data-name="Path 1411" d="M596.3,271.4l.158.115.139.1c.019.013.049.036.074.055l.074.055.134.1a.187.187,0,0,0,.269-.048l2.7-4.113a.187.187,0,0,0-.063-.265l-.145-.083-.08-.046-.1-.054-.249-.137-.283-.154-.3-.15c-.1-.051-.211-.108-.326-.159l-.353-.162c-.12-.057-.247-.108-.376-.162s-.259-.111-.4-.162l-.1-.039-1.165,5.056c.064.04.125.083.185.122Z" transform="translate(-573.267 -262.162)" fill="#fff"/>
      <path id="Path_1412" data-name="Path 1412" d="M191.334,242c.052-.007.1-.015.155-.021l.151-.015.29-.03.271-.018.127-.009c.041,0,.083-.006.118-.006l.208-.005.182-.006h.359a.187.187,0,0,0,.186-.2l-.243-3.709a.187.187,0,0,0-.21-.174l-.166.021-.193.025-.269.04-.305.047c-.055.008-.106.018-.159.028l-.163.031-.345.067-.366.083-.191.044c-.064.015-.129.033-.194.05l-.4.106-.409.123c-.069.021-.138.041-.208.064l-.208.071-.209.072c-.07.024-.14.048-.209.075l-.417.159c-.138.054-.275.114-.411.171-.068.029-.136.057-.2.087l-.2.092-.2.092c-.066.03-.131.06-.194.093l-.377.19c-.124.062-.242.131-.359.194s-.231.126-.34.192l-.317.188c-.1.06-.2.125-.291.183l-.266.171-.235.161-.206.142c-.064.044-.12.087-.172.125l-.179.132a.187.187,0,0,0-.043.256l1.54,2.264a.187.187,0,0,0,.247.058l.138-.078c.046-.025.1-.055.152-.085l.182-.095.206-.108.232-.111c.081-.038.164-.081.253-.119l.273-.12c.093-.043.191-.08.291-.12s.2-.083.305-.12l.318-.115c.053-.02.108-.037.163-.055l.165-.053.166-.054.169-.048c.113-.031.226-.066.34-.1l.342-.085c.056-.015.114-.027.171-.038l.17-.036.168-.036c.056-.011.112-.02.168-.03l.329-.057Z" transform="translate(-177.481 -234.945)" fill="#fff"/>
      <path id="Path_1413" data-name="Path 1413" d="M25.833,360.736l-.122.172-.122.173c-.041.058-.079.118-.118.177-.078.119-.158.238-.234.358l-.224.364-.055.091-.053.092-.1.183c-.142.241-.266.488-.391.723l-.172.352-.083.171-.076.169-.145.323-.127.306c-.04.1-.08.191-.114.282l-.1.257-.084.225-.066.193-.066.2a.187.187,0,0,0,.111.235l1.433.549a.187.187,0,0,0,.236-.094l.075-.156.079-.164.1-.19.112-.216c.04-.076.085-.153.131-.236l.143-.255.162-.268.084-.139.091-.14.187-.289c.135-.191.267-.392.416-.586l.11-.147.055-.074.058-.072.231-.29c.078-.1.16-.189.239-.283.04-.047.079-.094.12-.14l.123-.135.121-.134c.04-.045.08-.089.122-.131l.244-.252c.08-.083.163-.159.242-.237s.156-.153.235-.223l.226-.206c.073-.067.147-.127.216-.187l.2-.17.177-.14.154-.123c.022-.018.052-.04.077-.059l.073-.055.134-.1a.187.187,0,0,0,.029-.271l-1.632-1.912a.187.187,0,0,0-.272-.013l-.121.116-.066.064c-.024.023-.046.044-.075.074l-.181.183-.2.208-.211.229c-.073.08-.151.161-.227.25l-.236.273c-.082.093-.161.192-.243.293s-.166.2-.248.31l-.247.327C25.914,360.622,25.873,360.678,25.833,360.736Z" transform="translate(-22.481 -350.755)" fill="#fff"/>
      <path id="Path_1414" data-name="Path 1414" d="M.386,597.778l-.033.164-.038.189c-.014.07-.027.154-.042.238l-.047.273c-.008.048-.017.1-.025.147l-.021.152c-.027.207-.062.43-.082.669l-.036.365c-.01.125-.017.253-.026.382-.021.259-.024.527-.033.8l0,.1v.308q0,.1,0,.206v.1l0,.1.017.412,0,.1v.033l0,.025,0,.049.015.2.014.2.02.2.02.2.01.1.012.1.048.375.055.358c.017.116.038.229.058.337l0,.026a.187.187,0,0,0,.184.153H.98a.187.187,0,0,0,.187-.2q0-.043-.005-.087c-.006-.1-.014-.213-.016-.324l-.011-.342c0-.117,0-.236,0-.358v-.091c0-.03,0-.06,0-.091l0-.183,0-.185.009-.2.009-.2,0-.049v-.028c0-.008,0,.007,0,0V602.5l.008-.1.031-.385.008-.1.011-.1.022-.191.022-.19.011-.095.014-.094c.038-.25.071-.5.119-.731.022-.118.043-.234.066-.347l.074-.329c.044-.214.1-.414.148-.6l.035-.135c.012-.043.025-.085.037-.125l.069-.23c.022-.073.04-.138.061-.2l.061-.183.053-.159a.187.187,0,0,0-.13-.24l-1.267-.338A.187.187,0,0,0,.386,597.778Z" transform="translate(0 -581.094)" fill="#fff"/>
      <path id="Path_1415" data-name="Path 1415" d="M345.929,185.91a2.913,2.913,0,0,0,3.9-1.339,3.06,3.06,0,0,0,.222-.626l2.949-12.8,1.123-4.874.7-3.02a.478.478,0,0,0-.479-.591.459.459,0,0,0-.421.272l-1.416,2.9-2.089,4.272-5.823,11.91A2.915,2.915,0,0,0,345.929,185.91Zm1.386-4.122a1.429,1.429,0,1,1-1.429,1.429A1.429,1.429,0,0,1,347.315,181.788Z" transform="translate(-331.206 -162.661)" fill="#fff"/>
    </g>
  </g>
</svg>
