<svg xmlns="http://www.w3.org/2000/svg" width="56.467" height="74.78" viewBox="0 0 56.467 74.78">
  <g id="Group_1208" data-name="Group 1208" transform="translate(-363.584 -243.107)">
    <g id="Group_1039" data-name="Group 1039" transform="translate(364.567 243.107)">
      <g id="Group_1036" data-name="Group 1036">
        <g id="Group_1027" data-name="Group 1027">
          <g id="Group_1025" data-name="Group 1025" transform="translate(1.183)">
            <g id="Group_1023" data-name="Group 1023" transform="translate(0.293 0.671)">
              <g id="Group_1020" data-name="Group 1020">
                <path id="Path_1467" data-name="Path 1467" d="M368.824,244.31v28.439a.569.569,0,0,1,0,.08c-.03.223-.17.4-.338.4h-1.927c-.189,0-.344-.215-.344-.478V244.31c0-.269.154-.486.344-.486h1.927C368.671,243.824,368.824,244.041,368.824,244.31Z" transform="translate(-366.212 -243.824)" fill="#999"/>
              </g>
              <g id="Group_1021" data-name="Group 1021" transform="translate(1.574)">
                <path id="Path_1468" data-name="Path 1468" d="M368.932,244.31v28.439a.555.555,0,0,1,0,.08h-.69a.3.3,0,0,1-.194-.08.573.573,0,0,1-.151-.4V243.911a.556.556,0,0,1,0-.087h.692C368.778,243.824,368.932,244.041,368.932,244.31Z" transform="translate(-367.894 -243.824)" fill="#ccc"/>
              </g>
              <g id="Group_1022" data-name="Group 1022" transform="translate(1.115)">
                <path id="Path_1469" data-name="Path 1469" d="M368.207,243.824v28.447a.622.622,0,0,1-.194.477.307.307,0,0,1-.209.08c-.222,0-.4-.248-.4-.558V243.824Z" transform="translate(-367.403 -243.824)" fill="#fff"/>
              </g>
            </g>
            <g id="Group_1024" data-name="Group 1024">
              <path id="Path_1470" data-name="Path 1470" d="M369.517,243.893a.786.786,0,0,1-.786.785h-2.045a.787.787,0,0,1-.787-.785h0a.787.787,0,0,1,.787-.786h2.045a.787.787,0,0,1,.786.786Z" transform="translate(-365.899 -243.107)" fill="gray"/>
            </g>
          </g>
          <g id="Group_1026" data-name="Group 1026" transform="translate(0 25.697)">
            <path id="Rectangle_128" data-name="Rectangle 128" d="M1.439,0h2.47A1.439,1.439,0,0,1,5.348,1.439V7.314A1.439,1.439,0,0,1,3.908,8.753H1.438A1.438,1.438,0,0,1,0,7.315V1.439A1.439,1.439,0,0,1,1.439,0Z" fill="#666"/>
          </g>
        </g>
        <g id="Group_1035" data-name="Group 1035" transform="translate(49.151)">
          <g id="Group_1033" data-name="Group 1033" transform="translate(0.607)">
            <g id="Group_1031" data-name="Group 1031" transform="translate(0.291 0.671)">
              <g id="Group_1028" data-name="Group 1028">
                <path id="Path_1471" data-name="Path 1471" d="M420.723,244.31v28.439a.452.452,0,0,1,0,.08c-.027.223-.168.4-.338.4h-1.926c-.189,0-.344-.215-.344-.478V244.31c0-.269.154-.486.344-.486h1.926C420.569,243.824,420.723,244.041,420.723,244.31Z" transform="translate(-418.111 -243.824)" fill="#999"/>
              </g>
              <g id="Group_1029" data-name="Group 1029" transform="translate(1.575)">
                <path id="Path_1472" data-name="Path 1472" d="M420.831,244.31v28.439a.449.449,0,0,1,0,.08h-.691a.306.306,0,0,1-.192-.08.568.568,0,0,1-.15-.4V243.911a.552.552,0,0,1,0-.087h.69C420.677,243.824,420.831,244.041,420.831,244.31Z" transform="translate(-419.794 -243.824)" fill="#ccc"/>
              </g>
              <g id="Group_1030" data-name="Group 1030" transform="translate(1.116)">
                <path id="Path_1473" data-name="Path 1473" d="M420.1,243.824v28.447a.624.624,0,0,1-.192.477.3.3,0,0,1-.209.08c-.222,0-.4-.248-.4-.558V243.824Z" transform="translate(-419.303 -243.824)" fill="#fff"/>
              </g>
            </g>
            <g id="Group_1032" data-name="Group 1032">
              <path id="Path_1474" data-name="Path 1474" d="M421.415,243.893a.786.786,0,0,1-.786.785h-2.043a.785.785,0,0,1-.786-.785h0a.785.785,0,0,1,.786-.786h2.043a.786.786,0,0,1,.786.786Z" transform="translate(-417.8 -243.107)" fill="gray"/>
            </g>
          </g>
          <g id="Group_1034" data-name="Group 1034" transform="translate(0 25.697)">
            <path id="Rectangle_129" data-name="Rectangle 129" d="M1.439,0h2.47A1.438,1.438,0,0,1,5.347,1.438V7.314A1.439,1.439,0,0,1,3.907,8.753H1.438A1.438,1.438,0,0,1,0,7.315V1.439A1.439,1.439,0,0,1,1.439,0Z" fill="#666"/>
          </g>
        </g>
      </g>
      <g id="Group_1037" data-name="Group 1037" transform="translate(1.003 27.309)">
        <path id="Rectangle_130" data-name="Rectangle 130" d="M1.563,0H3.329A1.561,1.561,0,0,1,4.891,1.561V4.65A1.561,1.561,0,0,1,3.33,6.211H1.563A1.563,1.563,0,0,1,0,4.648V1.563A1.563,1.563,0,0,1,1.563,0Z" fill="#4d4d4d"/>
      </g>
      <g id="Group_1038" data-name="Group 1038" transform="translate(48.719 27.309)">
        <path id="Rectangle_131" data-name="Rectangle 131" d="M1.563,0H3.328A1.563,1.563,0,0,1,4.891,1.563V4.65A1.561,1.561,0,0,1,3.33,6.211H1.562A1.562,1.562,0,0,1,0,4.649V1.563A1.563,1.563,0,0,1,1.563,0Z" fill="#4d4d4d"/>
      </g>
    </g>
    <g id="Group_1040" data-name="Group 1040" transform="translate(368.263 248.657)">
      <rect id="Rectangle_132" data-name="Rectangle 132" width="47.109" height="56.63" rx="12.048" transform="translate(0)" fill="#94999d"/>
    </g>
    <g id="Group_1043" data-name="Group 1043" transform="translate(369.527 273.517)">
      <g id="Group_1041" data-name="Group 1041">
        <rect id="Rectangle_133" data-name="Rectangle 133" width="7.463" height="22.501" rx="1.555" fill="#3f5ca8"/>
      </g>
      <g id="Group_1042" data-name="Group 1042" transform="translate(37.116)">
        <path id="Rectangle_134" data-name="Rectangle 134" d="M1.555,0H5.909A1.556,1.556,0,0,1,7.465,1.556V20.95a1.556,1.556,0,0,1-1.556,1.556H1.556A1.556,1.556,0,0,1,0,20.95V1.555A1.555,1.555,0,0,1,1.555,0Z" fill="#3f5ca8"/>
      </g>
    </g>
    <g id="Group_1048" data-name="Group 1048" transform="translate(374.253 270.16)">
      <g id="Group_1044" data-name="Group 1044" transform="translate(0)">
        <path id="Rectangle_135" data-name="Rectangle 135" d="M1.439,0H33.687a1.439,1.439,0,0,1,1.439,1.439v8.636a1.438,1.438,0,0,1-1.438,1.438H1.439A1.439,1.439,0,0,1,0,10.075V1.439A1.439,1.439,0,0,1,1.439,0Z" fill="#333"/>
      </g>
      <g id="Group_1045" data-name="Group 1045" transform="translate(0 3.137)">
        <path id="Path_1475" data-name="Path 1475" d="M380.519,283.741h-4.188a1.346,1.346,0,0,1-1.347-1.347V275.52a1.254,1.254,0,0,1,.614-.155h2.256a1.346,1.346,0,0,1,1.346,1.347Z" transform="translate(-374.984 -275.365)" fill="#1a1a1a"/>
      </g>
      <g id="Group_1046" data-name="Group 1046" transform="translate(29.568 3.137)">
        <path id="Path_1476" data-name="Path 1476" d="M406.576,283.741h4.189a1.346,1.346,0,0,0,1.346-1.347V275.52a1.256,1.256,0,0,0-.613-.155h-2.255a1.346,1.346,0,0,0-1.347,1.347Z" transform="translate(-406.576 -275.365)" fill="#1a1a1a"/>
      </g>
      <g id="Group_1047" data-name="Group 1047" transform="translate(8.336 3.535)">
        <path id="Path_1477" data-name="Path 1477" d="M402.65,277.136v6.633H383.891v-6.633a1.344,1.344,0,0,1,1.346-1.346H401.3A1.351,1.351,0,0,1,402.65,277.136Z" transform="translate(-383.891 -275.79)" fill="#4d4d4d"/>
      </g>
    </g>
    <g id="Group_1049" data-name="Group 1049" transform="translate(374.256 281.432)">
      <path id="Rectangle_136" data-name="Rectangle 136" d="M3.6,0H31.528a3.6,3.6,0,0,1,3.6,3.6V18.43a3.6,3.6,0,0,1-3.6,3.6H3.6a3.6,3.6,0,0,1-3.6-3.6V3.6A3.6,3.6,0,0,1,3.6,0Z" fill="#2c2c2c"/>
    </g>
    <g id="Group_1052" data-name="Group 1052" transform="translate(369.122 308.339)">
      <g id="Group_1050" data-name="Group 1050" transform="translate(0 0)">
        <rect id="Rectangle_137" data-name="Rectangle 137" width="7.294" height="9.547" rx="1.438" fill="#1a1a1a"/>
      </g>
      <g id="Group_1051" data-name="Group 1051" transform="translate(38.097 0)">
        <path id="Rectangle_138" data-name="Rectangle 138" d="M1.438,0H5.854A1.439,1.439,0,0,1,7.294,1.439v6.67A1.438,1.438,0,0,1,5.855,9.547H1.439A1.439,1.439,0,0,1,0,8.109V1.438A1.438,1.438,0,0,1,1.438,0Z" fill="#1a1a1a"/>
      </g>
    </g>
    <g id="Group_1053" data-name="Group 1053" transform="translate(365.727 297.516)">
      <path id="Rectangle_139" data-name="Rectangle 139" d="M1.439,0h49.3A1.438,1.438,0,0,1,52.18,1.438V12.452a1.439,1.439,0,0,1-1.439,1.439H1.438A1.438,1.438,0,0,1,0,12.453V1.439A1.439,1.439,0,0,1,1.439,0Z" transform="translate(0 0)" fill="#333"/>
    </g>
    <g id="Group_1054" data-name="Group 1054" transform="translate(365.727 294.149)">
      <path id="Rectangle_140" data-name="Rectangle 140" d="M3.6,0H48.585a3.6,3.6,0,0,1,3.6,3.6V5.834a3.6,3.6,0,0,1-3.6,3.6H3.6A3.6,3.6,0,0,1,0,5.835V3.6A3.6,3.6,0,0,1,3.6,0Z" transform="translate(0 0)" fill="#4474e0"/>
    </g>
    <g id="Group_1055" data-name="Group 1055" transform="translate(382.962 284.882)">
      <path id="Rectangle_141" data-name="Rectangle 141" d="M1.816,0H15.895A1.815,1.815,0,0,1,17.71,1.815V15.324a1.817,1.817,0,0,1-1.817,1.817H1.817A1.817,1.817,0,0,1,0,15.324V1.816A1.816,1.816,0,0,1,1.816,0Z" transform="translate(0)" fill="#2c2c2c"/>
    </g>
    <g id="Group_1056" data-name="Group 1056" transform="translate(382.287 284.208)">
      <path id="Path_1478" data-name="Path 1478" d="M400.252,305.512h-14.31a2.377,2.377,0,0,1-2.373-2.374V289.4a2.377,2.377,0,0,1,2.373-2.375h14.31a2.378,2.378,0,0,1,2.374,2.375v13.74A2.378,2.378,0,0,1,400.252,305.512Zm-14.31-17.142a1.026,1.026,0,0,0-1.026,1.028v13.74a1.027,1.027,0,0,0,1.026,1.028h14.31a1.028,1.028,0,0,0,1.027-1.028V289.4a1.027,1.027,0,0,0-1.027-1.028Z" transform="translate(-383.568 -287.022)" fill="#4385f5"/>
    </g>
    <g id="Group_1057" data-name="Group 1057" transform="translate(374.414 281.226)">
      <path id="Path_1479" data-name="Path 1479" d="M399.1,288.125H385.964c-.7,0-10.809-3.018-10.809-3.018a1.272,1.272,0,0,1,1.272-1.271h32.262a1.272,1.272,0,0,1,1.273,1.271S399.8,288.125,399.1,288.125Z" transform="translate(-375.155 -283.836)" fill="#4474e0"/>
    </g>
    <g id="Group_1076" data-name="Group 1076" transform="translate(365.364 294.184)">
      <g id="Group_1066" data-name="Group 1066" transform="translate(0 0)">
        <g id="Group_1062" data-name="Group 1062">
          <g id="Group_1058" data-name="Group 1058">
            <path id="Rectangle_142" data-name="Rectangle 142" d="M4.089,0H11.6a4.089,4.089,0,0,1,4.089,4.089V5.343A4.088,4.088,0,0,1,11.6,9.43H4.089A4.089,4.089,0,0,1,0,5.342V4.089A4.089,4.089,0,0,1,4.089,0Z" fill="#3f5ca8"/>
          </g>
          <g id="Group_1059" data-name="Group 1059" transform="translate(0.943 0.84)">
            <path id="Rectangle_143" data-name="Rectangle 143" d="M3.6,0h6.609a3.6,3.6,0,0,1,3.6,3.6V4.7a3.6,3.6,0,0,1-3.6,3.6H3.6A3.6,3.6,0,0,1,0,4.7V3.6A3.6,3.6,0,0,1,3.6,0Z" fill="#4385f5"/>
          </g>
          <g id="Group_1140" data-name="Group 1140" transform="translate(3.948 3.074)">
            <g id="Group_1139" data-name="Group 1139" transform="translate(0)">
              <path id="Rectangle_150" data-name="Rectangle 150" d="M1.439,0H5.63A1.438,1.438,0,0,1,7.069,1.438V3.477A1.438,1.438,0,0,1,5.631,4.915H1.439A1.439,1.439,0,0,1,0,3.476V1.439A1.439,1.439,0,0,1,1.439,0Z" fill="#555"/>
            </g>
            <path id="Rectangle_151" data-name="Rectangle 151" d="M1.438,0H4.059A1.438,1.438,0,0,1,5.5,1.438v.4A1.439,1.439,0,0,1,4.058,3.274H1.438A1.438,1.438,0,0,1,0,1.835v-.4A1.438,1.438,0,0,1,1.438,0Z" transform="translate(0.751 0.819)" fill="#fff"/>
          </g>
        </g>
      </g>
      <g id="Group_1075" data-name="Group 1075" transform="translate(37.215 0)">
        <g id="Group_1071" data-name="Group 1071">
          <g id="Group_1067" data-name="Group 1067">
            <path id="Rectangle_147" data-name="Rectangle 147" d="M4.089,0H11.6A4.089,4.089,0,0,1,15.69,4.089V5.343A4.088,4.088,0,0,1,11.6,9.43H4.089A4.089,4.089,0,0,1,0,5.342V4.089A4.089,4.089,0,0,1,4.089,0Z" fill="#3f5ca8"/>
          </g>
          <g id="Group_1068" data-name="Group 1068" transform="translate(0.943 0.84)">
            <path id="Rectangle_148" data-name="Rectangle 148" d="M3.6,0h6.609a3.6,3.6,0,0,1,3.6,3.6V4.7a3.6,3.6,0,0,1-3.6,3.6H3.6A3.6,3.6,0,0,1,0,4.7V3.6A3.6,3.6,0,0,1,3.6,0Z" fill="#4385f5"/>
          </g>
        </g>
        <g id="Group_1072" data-name="Group 1072" transform="translate(4.534 3.074)">
          <g id="Group_1139-2" data-name="Group 1139" transform="translate(0)">
            <path id="Rectangle_150-2" data-name="Rectangle 150" d="M1.439,0H5.63A1.438,1.438,0,0,1,7.069,1.438V3.477A1.438,1.438,0,0,1,5.631,4.915H1.439A1.439,1.439,0,0,1,0,3.476V1.439A1.439,1.439,0,0,1,1.439,0Z" fill="#555"/>
          </g>
          <path id="Rectangle_151-2" data-name="Rectangle 151" d="M1.438,0H4.059A1.438,1.438,0,0,1,5.5,1.438v.4A1.439,1.439,0,0,1,4.058,3.274H1.438A1.438,1.438,0,0,1,0,1.835v-.4A1.438,1.438,0,0,1,1.438,0Z" transform="translate(0.751 0.819)" fill="#fff"/>
        </g>
      </g>
    </g>
    <g id="Group_1078" data-name="Group 1078" transform="translate(384.862 287.326)">
      <path id="Path_1485" data-name="Path 1485" d="M386.319,304.379V291.7a1.348,1.348,0,0,1,1.347-1.347h11.217a1.348,1.348,0,0,1,1.347,1.347v12.678Z" transform="translate(-386.319 -290.354)"/>
    </g>
    <g id="Group_1079" data-name="Group 1079" transform="translate(391.088 284.882)">
      <path id="Path_1486" data-name="Path 1486" d="M394.428,304.26a.757.757,0,0,1-.727.784h0a.759.759,0,0,1-.73-.784V288.527a.759.759,0,0,1,.73-.785h0a.758.758,0,0,1,.727.785Z" transform="translate(-392.971 -287.742)" fill="#4385f5"/>
    </g>
    <g id="Group_1094" data-name="Group 1094" transform="translate(363.584 275.181)">
      <g id="Group_1086" data-name="Group 1086" transform="translate(45.783)">
        <g id="Group_1080" data-name="Group 1080" transform="translate(0.599 5.035)">
          <path id="Path_1487" data-name="Path 1487" d="M420.152,282.943a.639.639,0,0,1,0,.9l-5.923,5.922a.636.636,0,0,1-.9,0h0a.637.637,0,0,1,0-.9l5.922-5.923a.637.637,0,0,1,.9,0Z" transform="translate(-413.142 -282.757)" fill="#1a1a1a"/>
        </g>
        <g id="Group_1081" data-name="Group 1081" transform="translate(0 5.034)">
          <path id="Path_1488" data-name="Path 1488" d="M412.5,283.354c0,.33.416.6.928.6h6.481c.513,0,.928-.267.928-.6h0c0-.33-.416-.6-.928-.6H413.43c-.513,0-.928.268-.928.6Z" transform="translate(-412.502 -282.756)" fill="#1a1a1a"/>
        </g>
        <g id="Group_1082" data-name="Group 1082" transform="translate(0.085 10.021)">
          <path id="Path_1489" data-name="Path 1489" d="M413.939,291.046a.674.674,0,0,1-.674.674h0a.673.673,0,0,1-.672-.674v-2.288a.672.672,0,0,1,.672-.674h0a.673.673,0,0,1,.674.674Z" transform="translate(-412.593 -288.084)" fill="#1a1a1a"/>
        </g>
        <g id="Group_1083" data-name="Group 1083" transform="translate(0 3.814)">
          <path id="Path_1490" data-name="Path 1490" d="M413.848,284.415a.672.672,0,0,1-.672.673h0a.673.673,0,0,1-.674-.673v-2.29a.674.674,0,0,1,.674-.673h0a.673.673,0,0,1,.672.673Z" transform="translate(-412.502 -281.452)" fill="#1a1a1a"/>
        </g>
        <g id="Group_1084" data-name="Group 1084" transform="translate(6.711)">
          <path id="Path_1491" data-name="Path 1491" d="M423.644,278.684v6.659a1.288,1.288,0,0,1-.113.531,1.306,1.306,0,0,1-1.191.768h-1.368a1.3,1.3,0,0,1-1.3-1.3v-6.659a1.306,1.306,0,0,1,1.3-1.307h1.368a1.3,1.3,0,0,1,1.238.9A1.186,1.186,0,0,1,423.644,278.684Z" transform="translate(-419.672 -277.377)" fill="#4152a4"/>
        </g>
        <g id="Group_1085" data-name="Group 1085" transform="translate(8.063 0.902)">
          <path id="Path_1492" data-name="Path 1492" d="M423.737,278.745V285.4a1.288,1.288,0,0,1-.113.531h-1.159a1.342,1.342,0,0,1-1.348-1.346v-4.9a1.347,1.347,0,0,1,1.348-1.346h1.205A1.185,1.185,0,0,1,423.737,278.745Z" transform="translate(-421.117 -278.341)" fill="#4474e0"/>
        </g>
      </g>
      <g id="Group_1093" data-name="Group 1093">
        <g id="Group_1087" data-name="Group 1087" transform="translate(2.887 5.035)">
          <path id="Path_1493" data-name="Path 1493" d="M366.855,282.943a.637.637,0,0,0,0,.9l5.923,5.922a.637.637,0,0,0,.9,0h0a.636.636,0,0,0,0-.9l-5.923-5.923a.637.637,0,0,0-.9,0Z" transform="translate(-366.668 -282.757)" fill="#1a1a1a"/>
        </g>
        <g id="Group_1088" data-name="Group 1088" transform="translate(2.344 5.034)">
          <path id="Path_1494" data-name="Path 1494" d="M374.427,283.354c0,.33-.416.6-.928.6h-6.48c-.514,0-.929-.267-.929-.6h0c0-.33.416-.6.929-.6h6.48c.513,0,.928.268.928.6Z" transform="translate(-366.089 -282.756)" fill="#1a1a1a"/>
        </g>
        <g id="Group_1089" data-name="Group 1089" transform="translate(9.252 10.021)">
          <path id="Path_1495" data-name="Path 1495" d="M373.469,291.046a.673.673,0,0,0,.673.674h0a.673.673,0,0,0,.673-.674v-2.288a.672.672,0,0,0-.673-.674h0a.673.673,0,0,0-.673.674Z" transform="translate(-373.469 -288.084)" fill="#1a1a1a"/>
        </g>
        <g id="Group_1090" data-name="Group 1090" transform="translate(9.337 3.814)">
          <path id="Path_1496" data-name="Path 1496" d="M373.56,284.415a.672.672,0,0,0,.672.673h0a.673.673,0,0,0,.674-.673v-2.29a.673.673,0,0,0-.674-.673h0a.672.672,0,0,0-.672.673Z" transform="translate(-373.56 -281.452)" fill="#1a1a1a"/>
        </g>
        <g id="Group_1091" data-name="Group 1091">
          <path id="Path_1497" data-name="Path 1497" d="M363.584,278.684v6.659a1.273,1.273,0,0,0,.113.531,1.3,1.3,0,0,0,1.192.768h1.366a1.3,1.3,0,0,0,1.3-1.3v-6.659a1.3,1.3,0,0,0-1.3-1.307H364.89a1.3,1.3,0,0,0-1.239.9A1.165,1.165,0,0,0,363.584,278.684Z" transform="translate(-363.584 -277.377)" fill="#4474e0"/>
        </g>
        <g id="Group_1092" data-name="Group 1092" transform="translate(0 0.902)">
          <path id="Path_1498" data-name="Path 1498" d="M363.584,278.745V285.4a1.274,1.274,0,0,0,.113.531h1.159a1.341,1.341,0,0,0,1.347-1.346v-4.9a1.346,1.346,0,0,0-1.347-1.346H363.65A1.164,1.164,0,0,0,363.584,278.745Z" transform="translate(-363.584 -278.341)" fill="#4152a4"/>
        </g>
      </g>
    </g>
    <g id="Group_1104" data-name="Group 1104" transform="translate(381.145 279.775)">
      <g id="Group_1102" data-name="Group 1102" transform="translate(0 0)">
        <path id="Path_1499" data-name="Path 1499" d="M390.581,282.669a.383.383,0,0,1-.383.384h-7.468a.384.384,0,0,1-.384-.384h0a.383.383,0,0,1,.384-.383H390.2a.382.382,0,0,1,.383.383Z" transform="translate(-382.347 -282.286)" fill="#1a1a1a"/>
      </g>
      <g id="Group_1103" data-name="Group 1103" transform="translate(13.11 0)">
        <path id="Path_1500" data-name="Path 1500" d="M404.589,282.669a.384.384,0,0,1-.384.384H396.74a.384.384,0,0,1-.385-.384h0a.383.383,0,0,1,.385-.383h7.466a.383.383,0,0,1,.384.383Z" transform="translate(-396.355 -282.286)" fill="#1a1a1a"/>
      </g>
    </g>
    <g id="Group_1110" data-name="Group 1110" transform="translate(374.364 281.317)">
      <g id="Group_1106" data-name="Group 1106" transform="translate(7.747 2.749)">
        <path id="Path_1502" data-name="Path 1502" d="M402.366,287.6a.725.725,0,0,1-.723.723H384.1a.725.725,0,0,1-.724-.723h0a.725.725,0,0,1,.724-.726h17.539a.725.725,0,0,1,.723.726Z" transform="translate(-383.379 -286.87)" fill="#4385f5"/>
      </g>
      <g id="Group_1107" data-name="Group 1107">
        <path id="Path_1503" data-name="Path 1503" d="M375.14,284.425a.724.724,0,0,0,.455.918L383.466,288a.721.721,0,0,0,.917-.454h0a.723.723,0,0,0-.455-.918l-7.87-2.658a.725.725,0,0,0-.918.454Z" transform="translate(-375.102 -283.933)" fill="#4385f5"/>
      </g>
      <g id="Group_1108" data-name="Group 1108" transform="translate(25.585)">
        <path id="Path_1504" data-name="Path 1504" d="M411.721,284.425a.724.724,0,0,1-.454.918L403.4,288a.722.722,0,0,1-.918-.454h0a.724.724,0,0,1,.455-.918l7.871-2.658a.723.723,0,0,1,.917.454Z" transform="translate(-402.439 -283.933)" fill="#4385f5"/>
      </g>
    </g>
    <g id="Group_1118" data-name="Group 1118" transform="translate(372.516 267.526)">
      <g id="Group_1113" data-name="Group 1113">
        <g id="Group_1111" data-name="Group 1111">
          <path id="Path_1506" data-name="Path 1506" d="M411.728,270.544v.923a1.33,1.33,0,0,1-1.346,1.346H374.476a1.375,1.375,0,0,1-.828-.276,1.354,1.354,0,0,1-.519-1.07v-.923a1.346,1.346,0,0,1,1.348-1.346h35.907A1.346,1.346,0,0,1,411.728,270.544Z" transform="translate(-373.128 -269.198)" fill="#4385f5"/>
        </g>
        <g id="Group_1112" data-name="Group 1112" transform="translate(0.519 2.121)">
          <path id="Path_1507" data-name="Path 1507" d="M411.245,272.682a1.342,1.342,0,0,1-.827.276H374.511a1.375,1.375,0,0,1-.828-.276,1.442,1.442,0,0,1,.4-.794,1.408,1.408,0,0,1,1.009-.424h34.729A1.442,1.442,0,0,1,411.245,272.682Z" transform="translate(-373.683 -271.464)" fill="#3f5ca8"/>
        </g>
      </g>
    </g>
    <g id="Group_1119" data-name="Group 1119" transform="translate(417.09 276.083)">
      <path id="Path_1511" data-name="Path 1511" d="M422.811,278.886a.542.542,0,0,1-.543.542H421.3a.543.543,0,0,1-.545-.542h0a.544.544,0,0,1,.545-.545h.971a.543.543,0,0,1,.543.545Z" transform="translate(-420.753 -278.341)" fill="#fff"/>
    </g>
    <g id="Group_1136" data-name="Group 1136" transform="translate(373.909 259.677)">
      <g id="Group_1128" data-name="Group 1128">
        <g id="Group_1123" data-name="Group 1123" transform="translate(0.431 1.116)">
          <path id="Rectangle_156" data-name="Rectangle 156" d="M1.438,0h13.62A1.438,1.438,0,0,1,16.5,1.438V4.171a1.439,1.439,0,0,1-1.439,1.439H1.439A1.439,1.439,0,0,1,0,4.172V1.438A1.438,1.438,0,0,1,1.438,0Z" fill="#333"/>
        </g>
        <g id="Group_1127" data-name="Group 1127">
          <g id="Group_1124" data-name="Group 1124" transform="translate(0.004 0.003)">
            <path id="Path_1514" data-name="Path 1514" d="M391.97,262.027a1.215,1.215,0,0,1-1.216,1.217h-14.92a1.214,1.214,0,0,1-1.214-1.217h0a1.213,1.213,0,0,1,1.214-1.213h14.92a1.214,1.214,0,0,1,1.216,1.213Z" transform="translate(-374.62 -260.814)" fill="#77a7fb"/>
          </g>
          <g id="Group_1125" data-name="Group 1125">
            <path id="Path_1515" data-name="Path 1515" d="M391.972,262.027a1.222,1.222,0,0,1-1.216,1.219H375.834a1.224,1.224,0,0,1-1.218-1.219,1.241,1.241,0,0,1,.356-.861,1.207,1.207,0,0,1,.862-.355h14.922A1.216,1.216,0,0,1,391.972,262.027Z" transform="translate(-374.616 -260.811)" fill="#4385f5"/>
          </g>
          <g id="Group_1126" data-name="Group 1126" transform="translate(0.166 1.216)">
            <path id="Path_1516" data-name="Path 1516" d="M391.818,262.719a1.217,1.217,0,0,1-1.051.609H375.845a1.218,1.218,0,0,1-1.052-.609,1.063,1.063,0,0,1,.19-.253,1.213,1.213,0,0,1,.862-.357h14.922A1.219,1.219,0,0,1,391.818,262.719Z" transform="translate(-374.793 -262.11)" fill="#3f5ca8"/>
          </g>
        </g>
      </g>
      <g id="Group_1135" data-name="Group 1135" transform="translate(18.46)">
        <g id="Group_1129" data-name="Group 1129" transform="translate(0.43 1.116)">
          <path id="Rectangle_157" data-name="Rectangle 157" d="M1.438,0H15.057A1.438,1.438,0,0,1,16.5,1.438V4.171a1.439,1.439,0,0,1-1.439,1.439H1.439A1.439,1.439,0,0,1,0,4.172V1.438A1.438,1.438,0,0,1,1.438,0Z" fill="#333"/>
        </g>
        <g id="Group_1133" data-name="Group 1133">
          <g id="Group_1130" data-name="Group 1130" transform="translate(0.003 0.003)">
            <path id="Path_1517" data-name="Path 1517" d="M411.694,262.027a1.215,1.215,0,0,1-1.215,1.217H395.558a1.215,1.215,0,0,1-1.215-1.217h0a1.215,1.215,0,0,1,1.215-1.213h14.921a1.215,1.215,0,0,1,1.215,1.213Z" transform="translate(-394.343 -260.814)" fill="#77a7fb"/>
          </g>
          <g id="Group_1131" data-name="Group 1131">
            <path id="Path_1518" data-name="Path 1518" d="M411.7,262.027a1.239,1.239,0,0,1-.165.609,1.222,1.222,0,0,1-1.052.609H395.558a1.222,1.222,0,0,1-1.218-1.219,1.24,1.24,0,0,1,.355-.861,1.206,1.206,0,0,1,.863-.355h14.921A1.217,1.217,0,0,1,411.7,262.027Z" transform="translate(-394.34 -260.811)" fill="#4385f5"/>
          </g>
          <g id="Group_1132" data-name="Group 1132" transform="translate(0.165 1.216)">
            <path id="Path_1519" data-name="Path 1519" d="M411.542,262.719a1.222,1.222,0,0,1-1.052.609H395.569a1.217,1.217,0,0,1-1.053-.609,1.091,1.091,0,0,1,.19-.253,1.212,1.212,0,0,1,.863-.357H410.49A1.224,1.224,0,0,1,411.542,262.719Z" transform="translate(-394.516 -262.11)" fill="#3f5ca8"/>
          </g>
        </g>
      </g>
    </g>
  </g>
</svg>
