<svg xmlns="http://www.w3.org/2000/svg" width="16.816" height="9.43" viewBox="0 0 16.816 9.43">
  <path id="truck_small" d="M6.231,141.032a1.4,1.4,0,1,0,1.4,1.406A1.4,1.4,0,0,0,6.231,141.032Zm0,2.108a.7.7,0,1,1,.7-.7A.7.7,0,0,1,6.231,143.14Zm10.585-3.146v1.5a.677.677,0,0,1-.677.677h-.724a1.857,1.857,0,0,0-3.676,0H8.068a1.856,1.856,0,0,0-3.673,0H3.488a.677.677,0,0,1-.677-.677v-1.5H16.816Zm-3.238,1.038a1.4,1.4,0,1,0,1.4,1.406A1.406,1.406,0,0,0,13.578,141.032Zm0,2.108a.7.7,0,1,1,.7-.7A.7.7,0,0,1,13.578,143.14Zm2.972-4.655-2.66-2.631a.9.9,0,0,0-.634-.262H11.913v-.5a.676.676,0,0,0-.677-.677H3.487a.677.677,0,0,0-.677.677v.106l-2.747.317,4.868.634L0,136.635l4.913.7L0,137.76l2.81.53v1.33H16.816v-.494A.907.907,0,0,0,16.55,138.485Zm-1.16.088H12.815a.106.106,0,0,1-.106-.106v-1.988a.106.106,0,0,1,.106-.106h.49a.114.114,0,0,1,.074.029l2.083,1.988A.106.106,0,0,1,15.39,138.573Z" transform="translate(0 -134.412)"/>
</svg>
